<svg xmlns="http://www.w3.org/2000/svg" width="32" height="30.5"><path d="M30.74 9.5a15.73 15.73 0 0 0-8.24-8.24 5.87 5.87 0 0 1 8.24 8.24zM30.5 16a14.44 14.44 0 0 1-3.96 9.94l2.03 2.03a1.48 1.48 0 0 1-1.05 2.53 1.51 1.51 0 0 1-1.05-.43l-2.18-2.18a14.47 14.47 0 0 1-16.57.01l-2.16 2.16a1.5 1.5 0 1 1-2.12-2.12l2.01-2.01A14.5 14.5 0 1 1 30.5 16zM16 4.5A11.5 11.5 0 1 0 27.5 16 11.5 11.5 0 0 0 16 4.5zm6 13h-6a1.5 1.5 0 0 1-1.5-1.5V8a1.5 1.5 0 0 1 3 0v6.5H22a1.5 1.5 0 0 1 0 3zM1.29 9.71A6 6 0 0 1 6 0a5.93 5.93 0 0 1 3.7 1.29A16.02 16.02 0 0 0 1.3 9.71z" fill="#95e1d3" fill-rule="evenodd"/></svg>