<svg xmlns="http://www.w3.org/2000/svg" width="32" height="32"><path data-name="BOOK 2" d="M31.06 25.89L16.6 31.88a1.53 1.53 0 0 1-1.18 0L.93 25.89A1.5 1.5 0 0 1 0 24.5v-23A1.5 1.5 0 0 1 1.5 0a1.55 1.55 0 0 1 .57.11.01.01 0 0 0 .02.01L16 5.88 29.91.12a.01.01 0 0 0 .01-.01A1.55 1.55 0 0 1 30.5 0 1.5 1.5 0 0 1 32 1.5v23a1.5 1.5 0 0 1-.93 1.39zM14.5 8.5L3 3.74V23.5l11.5 4.76V8.5zM29 3.74L17.5 8.5v19.76L29 23.5V3.74zm-9.12 6.89l5.5-2.5A1.6 1.6 0 0 1 26 8a1.5 1.5 0 0 1 .62 2.87l-5.5 2.5a1.6 1.6 0 0 1-.62.13 1.5 1.5 0 0 1-.62-2.87zm0 5.5l5.5-2.5a1.6 1.6 0 0 1 .62-.13 1.5 1.5 0 0 1 .62 2.87l-5.5 2.5v-.01a1.45 1.45 0 0 1-.62.14 1.5 1.5 0 0 1-.62-2.87zm0 5.5l5.5-2.5A1.6 1.6 0 0 1 26 19a1.5 1.5 0 0 1 .62 2.87l-5.5 2.5a1.6 1.6 0 0 1-.62.13 1.5 1.5 0 0 1-.62-2.87zM6 8a1.6 1.6 0 0 1 .62.13l5.5 2.5a1.5 1.5 0 0 1-.62 2.87 1.6 1.6 0 0 1-.62-.13l-5.5-2.5A1.5 1.5 0 0 1 6 8zm0 5.5a1.6 1.6 0 0 1 .62.13l5.5 2.5A1.5 1.5 0 0 1 11.5 19a1.44 1.44 0 0 1-.62-.14v.01l-5.5-2.5A1.5 1.5 0 0 1 6 13.5zM6 19a1.6 1.6 0 0 1 .62.13l5.5 2.5a1.5 1.5 0 0 1-.62 2.87 1.6 1.6 0 0 1-.62-.13l-5.5-2.5A1.5 1.5 0 0 1 6 19z" fill="#95e1d3" fill-rule="evenodd"/></svg>