<svg xmlns="http://www.w3.org/2000/svg" width="19.59" height="25.62"><path d="M8.15 16.63l-.64 2.56a18.96 18.96 0 0 1-.72 2.47 12.7 12.7 0 0 1-2.04 3.53c-.58.66-.46.4-.63.36-.13-.03-.14-.16-.17-.34a19.31 19.31 0 0 1 0-3.34 18.15 18.15 0 0 1 .6-3.48l1.43-6.16a1.42 1.42 0 0 0 .1-.44 6.47 6.47 0 0 1-.44-1.7 5.45 5.45 0 0 1 .14-1.95 3.22 3.22 0 0 1 1.9-2.34 2.2 2.2 0 0 1 1.73.14 1.85 1.85 0 0 1 .87 1.24 4.46 4.46 0 0 1-.08 1.89c-.27 1.22-.62 2.14-.94 3.31a3.65 3.65 0 0 0-.19 1.81 2.12 2.12 0 0 0 .85 1.28 2.5 2.5 0 0 0 1.62.46 3.57 3.57 0 0 0 2.66-1.57 9.3 9.3 0 0 0 1.67-4.69 11.56 11.56 0 0 0 .07-2.01 5.47 5.47 0 0 0-1.13-3.12 5.28 5.28 0 0 0-2.5-1.71 8.29 8.29 0 0 0-3.76-.23 6.61 6.61 0 0 0-4.91 3.53 7.08 7.08 0 0 0-.84 3.41 4.44 4.44 0 0 0 .68 2.5c.13.2.33.37.46.6a1.72 1.72 0 0 1-.12 1.16c-.11.43-.12 1.01-.62 1.02a1.38 1.38 0 0 1-.64-.24 5.1 5.1 0 0 1-2.42-3.74 8.88 8.88 0 0 1 0-3.23 9.24 9.24 0 0 1 4.4-6.15A10.4 10.4 0 0 1 8.44.12a13.32 13.32 0 0 1 1.61-.13 9.63 9.63 0 0 1 4.33.8 8.86 8.86 0 0 1 2.98 2.15 8.14 8.14 0 0 1 1.83 3.31 7.92 7.92 0 0 1 .4 2.29 13.86 13.86 0 0 1-.3 2.37 9.31 9.31 0 0 1-3.84 6.45 6.92 6.92 0 0 1-4 1.1 4.64 4.64 0 0 1-1.99-.58 3.3 3.3 0 0 1-1.31-1.25z" fill="#f38181" fill-rule="evenodd"/></svg>